<?xml version="1.0" encoding="UTF-8"?>
<svg width="22px" height="22px" viewBox="0 0 22 22" version="1.1" xmlns="http://www.w3.org/2000/svg" xmlns:xlink="http://www.w3.org/1999/xlink">
    <!-- Generator: Sketch 52.6 (67491) - http://www.bohemiancoding.com/sketch -->
    <title>Mask</title>
    <desc>Created with Sketch.</desc>
    <defs>
        <path d="M17,2 L15,2 L15,1 C15,0.4 14.6,0 14,0 C13.4,0 13,0.4 13,1 L13,2 L7,2 L7,1 C7,0.4 6.6,0 6,0 C5.4,0 5,0.4 5,1 L5,2 L3,2 C1.3,2 0,3.3 0,5 L0,19 C0,20.7 1.3,22 3,22 L17,22 C18.7,22 20,20.7 20,19 L20,5 C20,3.3 18.7,2 17,2 Z M3,4 L5,4 L5,5 C5,5.6 5.4,6 6,6 C6.6,6 7,5.6 7,5 L7,4 L13,4 L13,5 C13,5.6 13.4,6 14,6 C14.6,6 15,5.6 15,5 L15,4 L17,4 C17.6,4 18,4.4 18,5 L18,8 L2,8 L2,5 C2,4.4 2.4,4 3,4 Z M17,20 L3,20 C2.4,20 2,19.6 2,19 L2,10 L18,10 L18,19 C18,19.6 17.6,20 17,20 Z" id="path-1"></path>
    </defs>
    <g id="Wireframe_Desktop" stroke="none" stroke-width="1" fill="none" fill-rule="evenodd">
        <g id="Buttons-and-symbols" transform="translate(-649.000000, -218.000000)">
            <g id="calendar-icon-(blue)" transform="translate(650.000000, 218.000000)">
                <mask id="mask-2" fill="white">
                    <use xlink:href="#path-1"></use>
                </mask>
                <use id="Mask" fill="#009ADA" fill-rule="nonzero" xlink:href="#path-1"></use>
            </g>
        </g>
    </g>
</svg>